<?xml version="1.0" encoding="utf-8"?>
<!-- Generator: Adobe Illustrator 16.0.0, SVG Export Plug-In . SVG Version: 6.00 Build 0)  -->
<!DOCTYPE svg PUBLIC "-//W3C//DTD SVG 1.1//EN" "http://www.w3.org/Graphics/SVG/1.1/DTD/svg11.dtd">
<svg version="1.1" xmlns="http://www.w3.org/2000/svg" xmlns:xlink="http://www.w3.org/1999/xlink" x="0px" y="0px" width="1024px"
	 height="1024px" viewBox="0 0 1024 1024" enable-background="new 0 0 1024 1024" xml:space="preserve">
<g id="圖層_2">
</g>
<g id="圖層_1">
	<g>
		<path fill="#990000" d="M897.41,484.133c19.127-36.809,29.93-78.564,29.93-122.887c0-147.332-119.447-266.77-266.791-266.77
			c-95.043,0-178.456,49.715-225.719,124.598c-26.613-9.553-55.283-14.824-85.188-14.824
			c-139.333,0-252.248,112.951-252.248,252.283c0,34.361,6.889,67.105,19.281,96.957C47.977,584.061,0,652.93,0,733.031
			c0,108.512,87.954,196.492,196.465,196.492c3.455,0,6.856-0.115,10.264-0.281H777.23c3.534,0.166,7.063,0.281,10.618,0.281
			c130.447,0,236.151-105.762,236.151-236.178C1024,602.457,972.637,523.639,897.41,484.133z"/>
		<path fill="#FFFFFF" d="M217.452,497.793c0-31.283-1.044-57.918-2.066-79.959h65.616l3.576,33.809h1.563
			c10.735-15.857,32.771-39.482,75.837-39.482c32.299,0,57.922,16.414,68.667,42.566h1.018c9.24-12.822,20.526-23.064,32.299-30.248
			c13.829-8.176,29.227-12.318,47.697-12.318c48.173,0,84.531,33.846,84.531,108.695v147.604h-75.837V532.137
			c0-36.41-11.794-57.393-36.914-57.393c-17.956,0-30.736,12.26-35.876,27.148c-2.034,5.607-3.057,13.834-3.057,19.98v146.586
			h-75.868V527.994c0-31.766-11.271-53.25-35.897-53.25c-19.959,0-31.779,15.344-36.379,28.178
			c-2.559,6.162-3.052,13.32-3.052,19.477v146.061h-75.857V497.793z"/>
		<path fill="#FFFFFF" d="M681.255,417.834l37.434,123.023c4.08,14.814,9.214,33.307,12.298,46.611h1.531
			c3.57-13.305,7.703-32.316,11.301-46.611l30.736-123.023h83.524l-58.42,165.02c-35.85,99.451-59.968,139.412-88.161,164.559
			c-27.144,23.557-55.84,31.764-75.332,34.35l-16.389-66.131c9.729-1.568,22.036-6.178,33.82-13.318
			c11.805-6.189,24.605-18.455,32.31-31.289c2.527-3.58,4.101-7.693,4.101-11.279c0-2.555-0.535-6.682-3.603-12.813l-91.737-229.098
			H681.255z"/>
	</g>
</g>
</svg>
